<svg version="1.2" xmlns="http://www.w3.org/2000/svg" viewBox="0 0 300 300" width="300" height="300">
	<title>user-square-svgrepo-com-svg</title>
	<style>
		.s0 { opacity: .4;fill: #fdfdfd } 
		.s1 { fill: #3c97ab } 
		.s2 { fill: #122a48 } 
	</style>
	<path id="Layer" class="s0" d="m298.8 87.6v124.8c0 41.8-19.2 70.5-53 81.4-9.8 3.4-21.1 5-33.4 5h-124.8c-12.3 0-23.6-1.6-33.4-5-33.8-10.9-53-39.6-53-81.4v-124.8c0-54.1 32.3-86.4 86.4-86.4h124.8c54.1 0 86.4 32.3 86.4 86.4z"/>
	<path id="Layer" class="s1" d="m245.8 293.8c-9.8 3.4-21.1 5-33.4 5h-124.7c-12.4 0-23.7-1.6-33.5-5.1 5.2-39.2 46.3-69.7 95.8-69.7 49.6 0 90.6 30.5 95.8 69.7z"/>
	<path id="Layer" class="s2" d="m150 197.2c-29.5 0-53.3-23.9-53.3-53.4 0-29.5 23.8-53.3 53.3-53.3 29.5 0 53.3 23.8 53.3 53.3 0 29.5-23.8 53.4-53.3 53.4z"/>
</svg>